<svg width="149" height="75" viewBox="0 0 149 75" fill="none" xmlns="http://www.w3.org/2000/svg">
<rect width="149" height="75" fill="white"/>
<path d="M24.224 60.448C20.9387 60.448 17.9947 59.9147 15.392 58.848C12.7893 57.7813 10.6987 56.2027 9.12 54.112C7.584 52.0213 6.77333 49.504 6.688 46.56H18.336C18.5067 48.224 19.0827 49.504 20.064 50.4C21.0453 51.2533 22.3253 51.68 23.904 51.68C25.5253 51.68 26.8053 51.3173 27.744 50.592C28.6827 49.824 29.152 48.7787 29.152 47.456C29.152 46.3467 28.768 45.4293 28 44.704C27.2747 43.9787 26.3573 43.3813 25.248 42.912C24.1813 42.4427 22.6453 41.9093 20.64 41.312C17.7387 40.416 15.3707 39.52 13.536 38.624C11.7013 37.728 10.1227 36.4053 8.8 34.656C7.47733 32.9067 6.816 30.624 6.816 27.808C6.816 23.6267 8.33067 20.3627 11.36 18.016C14.3893 15.6267 18.336 14.432 23.2 14.432C28.1493 14.432 32.1387 15.6267 35.168 18.016C38.1973 20.3627 39.8187 23.648 40.032 27.872H28.192C28.1067 26.4213 27.5733 25.2907 26.592 24.48C25.6107 23.6267 24.352 23.2 22.816 23.2C21.4933 23.2 20.4267 23.5627 19.616 24.288C18.8053 24.9707 18.4 25.9733 18.4 27.296C18.4 28.7467 19.0827 29.8773 20.448 30.688C21.8133 31.4987 23.9467 32.3733 26.848 33.312C29.7493 34.2933 32.096 35.232 33.888 36.128C35.7227 37.024 37.3013 38.3253 38.624 40.032C39.9467 41.7387 40.608 43.936 40.608 46.624C40.608 49.184 39.9467 51.5093 38.624 53.6C37.344 55.6907 35.4667 57.3547 32.992 58.592C30.5173 59.8293 27.5947 60.448 24.224 60.448ZM58.287 23.84V32.928H72.943V41.376H58.287V51.232H74.863V60H47.343V15.072H74.863V23.84H58.287ZM92.912 15.072V60H81.968V15.072H92.912ZM141.035 60H130.091L111.787 32.288V60H100.843V15.072H111.787L130.091 42.912V15.072H141.035V60Z" fill="black"/>
</svg>
